<svg width="49" height="48" viewBox="0 0 49 48" fill="none" xmlns="http://www.w3.org/2000/svg">
<g clip-path="url(#clip0_20_200)">
<path d="M41.8279 6.98592C46.6093 11.6432 49 17.2582 49 23.831C49 30.4038 46.6093 36.0188 41.8279 40.6761C37.0464 45.3333 31.2896 47.662 24.5574 47.662C20.4262 47.662 16.5628 46.6854 12.9672 44.7324L0 48L3.44262 35.7183C1.30055 32.0376 0.229508 28.0563 0.229508 23.7746C0.229508 17.2394 2.60109 11.6432 7.34426 6.98592C12.0874 2.32864 17.8251 0 24.5574 0C31.2896 0 37.0464 2.32864 41.8279 6.98592ZM24.5574 43.6056C30.1421 43.6056 34.9235 41.6714 38.9016 37.8028C42.8798 33.9343 44.8689 29.2582 44.8689 23.7746C44.8689 18.2911 42.8798 13.615 38.9016 9.74648C34.9235 5.87793 30.1421 3.94366 24.5574 3.94366C18.9727 3.94366 14.2104 5.87793 10.2705 9.74648C6.3306 13.615 4.36066 18.2911 4.36066 23.7746C4.36066 27.6056 5.39344 31.1362 7.45902 34.3662L7.91803 35.0423L5.85246 42.3662L13.541 40.4507L14.2295 40.7887C17.4426 42.6667 20.8852 43.6056 24.5574 43.6056ZM35.6885 28.7324C36.377 29.108 36.7596 29.3709 36.8361 29.5211C37.1421 29.9718 37.0273 30.9108 36.4918 32.338C36.2623 32.939 35.6885 33.5211 34.7705 34.0845C33.8525 34.6479 33.0492 35.0047 32.3607 35.1549C30.9836 35.3052 29.7213 35.23 28.5738 34.9296C27.2732 34.4789 26.1257 34.0657 25.1311 33.6901C24.5191 33.3897 23.9262 33.0704 23.3525 32.7324C22.7787 32.3944 22.224 32.0563 21.6885 31.7183C21.153 31.3803 20.6557 31.0235 20.1967 30.6479C19.7377 30.2723 19.2978 29.8967 18.877 29.5211C18.4563 29.1455 18.0546 28.7512 17.6721 28.338C17.2896 27.9249 16.9645 27.5681 16.6967 27.2676C16.429 26.9671 16.1612 26.6479 15.8934 26.3099C15.6257 25.9718 15.4153 25.7089 15.2623 25.5211C15.1093 25.3333 14.9754 25.1455 14.8607 24.9577L14.6885 24.6761C13.0055 22.4977 12.1639 20.4319 12.1639 18.4789C12.1639 16.6761 12.8907 15.0235 14.3443 13.5211C14.8033 12.9953 15.3388 12.7324 15.9508 12.7324C16.4098 12.7324 16.7923 12.77 17.0984 12.8451C17.7104 12.8451 18.1694 13.1831 18.4754 13.8592C18.6284 14.0845 18.8579 14.5728 19.1639 15.3239L19.9672 17.2958L20.3115 18.2535C20.541 18.6291 20.5792 18.9671 20.4262 19.2676C20.1967 19.7934 20.0055 20.1315 19.8525 20.2817L19.5082 20.6197L19.1639 21.0141L18.9344 21.2958C18.4754 21.7465 18.3607 22.1596 18.5902 22.5352C19.5847 24.1878 20.7322 25.5775 22.0328 26.7042C23.0273 27.5305 24.6721 28.507 26.9672 29.6338C27.5027 29.8592 27.9235 29.8216 28.2295 29.5211C29.1475 28.3944 29.7978 27.6056 30.1803 27.1549C30.4863 26.7042 30.9454 26.5915 31.5574 26.8169C32.0164 27.0423 33.3934 27.6807 35.6885 28.7324Z" fill="#C9A24D"/>
</g>
<defs>
<clipPath id="clip0_20_200">
<rect width="49" height="48" fill="white"/>
</clipPath>
</defs>
</svg>
